# Blender v2.63 (sub 0) OBJ File: 'number.blend'
# www.blender.org
mtllib 2.mtl
o Text
v -0.216000 -0.250000 0.100000
v -0.216000 -0.243000 0.100000
v -0.196689 -0.219596 0.100000
v -0.176431 -0.195019 0.100000
v -0.155484 -0.169469 0.100000
v -0.134111 -0.143148 0.100000
v -0.112571 -0.116258 0.100000
v -0.091125 -0.089000 0.100000
v -0.070033 -0.061575 0.100000
v -0.049556 -0.034185 0.100000
v -0.029953 -0.007031 0.100000
v -0.011486 0.019685 0.100000
v 0.005585 0.045763 0.100000
v 0.021000 0.071000 0.100000
v 0.028667 0.084338 0.100000
v 0.035667 0.096954 0.100000
v 0.042000 0.109000 0.100000
v 0.047667 0.120630 0.100000
v 0.052667 0.131995 0.100000
v 0.057000 0.143250 0.100000
v 0.060667 0.154546 0.100000
v 0.063667 0.166037 0.100000
v 0.066000 0.177875 0.100000
v 0.067667 0.190213 0.100000
v 0.068667 0.203204 0.100000
v 0.069000 0.217000 0.100000
v 0.067977 0.235274 0.100000
v 0.064986 0.252523 0.100000
v 0.060141 0.268641 0.100000
v 0.053556 0.283518 0.100000
v 0.045345 0.297049 0.100000
v 0.035625 0.309125 0.100000
v 0.024509 0.319638 0.100000
v 0.012111 0.328481 0.100000
v -0.001453 0.335547 0.100000
v -0.016069 0.340727 0.100000
v -0.031623 0.343914 0.100000
v -0.048000 0.345000 0.100000
v -0.060273 0.344527 0.100000
v -0.072602 0.343046 0.100000
v -0.085000 0.340469 0.100000
v -0.097481 0.336704 0.100000
v -0.110060 0.331661 0.100000
v -0.122750 0.325250 0.100000
v -0.135565 0.317381 0.100000
v -0.148519 0.307963 0.100000
v -0.161625 0.296906 0.100000
v -0.174898 0.284120 0.100000
v -0.188352 0.269515 0.100000
v -0.202000 0.253000 0.100000
v -0.202000 0.376000 0.100000
v -0.188329 0.386522 0.100000
v -0.174796 0.396093 0.100000
v -0.161375 0.404719 0.100000
v -0.148037 0.412407 0.100000
v -0.134755 0.419165 0.100000
v -0.121500 0.425000 0.100000
v -0.108245 0.429918 0.100000
v -0.094963 0.433926 0.100000
v -0.081625 0.437031 0.100000
v -0.068204 0.439241 0.100000
v -0.054671 0.440561 0.100000
v -0.041000 0.441000 0.100000
v -0.011069 0.439215 0.100000
v 0.017116 0.433972 0.100000
v 0.043391 0.425438 0.100000
v 0.067593 0.413778 0.100000
v 0.089558 0.399160 0.100000
v 0.109125 0.381750 0.100000
v 0.126129 0.361715 0.100000
v 0.140407 0.339222 0.100000
v 0.151797 0.314437 0.100000
v 0.160134 0.287528 0.100000
v 0.165256 0.258660 0.100000
v 0.167000 0.228000 0.100000
v 0.165732 0.200564 0.100000
v 0.161852 0.173509 0.100000
v 0.155250 0.146469 0.100000
v 0.145815 0.119074 0.100000
v 0.133435 0.090957 0.100000
v 0.118000 0.061750 0.100000
v 0.099398 0.031084 0.100000
v 0.077519 -0.001407 0.100000
v 0.052250 -0.036094 0.100000
v 0.023481 -0.073343 0.100000
v -0.008898 -0.113522 0.100000
v -0.045000 -0.157000 0.100000
v 0.216000 -0.157000 0.100000
v 0.216000 -0.250000 0.100000
v -0.216000 -0.250000 -0.100000
v -0.216000 -0.243000 -0.100000
v -0.196689 -0.219596 -0.100000
v -0.176431 -0.195018 -0.100000
v -0.155484 -0.169469 -0.100000
v -0.134111 -0.143148 -0.100000
v -0.112571 -0.116258 -0.100000
v -0.091125 -0.089000 -0.100000
v -0.070033 -0.061575 -0.100000
v -0.049556 -0.034185 -0.100000
v -0.029953 -0.007031 -0.100000
v -0.011486 0.019685 -0.100000
v 0.005585 0.045763 -0.100000
v 0.021000 0.071000 -0.100000
v 0.028667 0.084338 -0.100000
v 0.035667 0.096954 -0.100000
v 0.042000 0.109000 -0.100000
v 0.047667 0.120630 -0.100000
v 0.052667 0.131995 -0.100000
v 0.057000 0.143250 -0.100000
v 0.060667 0.154546 -0.100000
v 0.063667 0.166037 -0.100000
v 0.066000 0.177875 -0.100000
v 0.067667 0.190213 -0.100000
v 0.068667 0.203204 -0.100000
v 0.069000 0.217000 -0.100000
v 0.067977 0.235274 -0.100000
v 0.064986 0.252523 -0.100000
v 0.060141 0.268641 -0.100000
v 0.053556 0.283519 -0.100000
v 0.045345 0.297049 -0.100000
v 0.035625 0.309125 -0.100000
v 0.024509 0.319638 -0.100000
v 0.012111 0.328481 -0.100000
v -0.001453 0.335547 -0.100000
v -0.016069 0.340727 -0.100000
v -0.031623 0.343914 -0.100000
v -0.048000 0.345000 -0.100000
v -0.060273 0.344527 -0.100000
v -0.072602 0.343046 -0.100000
v -0.085000 0.340469 -0.100000
v -0.097481 0.336704 -0.100000
v -0.110060 0.331661 -0.100000
v -0.122750 0.325250 -0.100000
v -0.135565 0.317381 -0.100000
v -0.148519 0.307963 -0.100000
v -0.161625 0.296906 -0.100000
v -0.174898 0.284120 -0.100000
v -0.188352 0.269515 -0.100000
v -0.202000 0.253000 -0.100000
v -0.202000 0.376000 -0.100000
v -0.188329 0.386522 -0.100000
v -0.174796 0.396093 -0.100000
v -0.161375 0.404719 -0.100000
v -0.148037 0.412408 -0.100000
v -0.134755 0.419166 -0.100000
v -0.121500 0.425000 -0.100000
v -0.108245 0.429918 -0.100000
v -0.094963 0.433926 -0.100000
v -0.081625 0.437031 -0.100000
v -0.068204 0.439241 -0.100000
v -0.054671 0.440561 -0.100000
v -0.041000 0.441000 -0.100000
v -0.011069 0.439215 -0.100000
v 0.017116 0.433972 -0.100000
v 0.043391 0.425438 -0.100000
v 0.067593 0.413778 -0.100000
v 0.089558 0.399160 -0.100000
v 0.109125 0.381750 -0.100000
v 0.126129 0.361715 -0.100000
v 0.140407 0.339222 -0.100000
v 0.151797 0.314438 -0.100000
v 0.160134 0.287528 -0.100000
v 0.165256 0.258660 -0.100000
v 0.167000 0.228000 -0.100000
v 0.165732 0.200564 -0.100000
v 0.161852 0.173509 -0.100000
v 0.155250 0.146469 -0.100000
v 0.145815 0.119074 -0.100000
v 0.133435 0.090957 -0.100000
v 0.118000 0.061750 -0.100000
v 0.099398 0.031085 -0.100000
v 0.077519 -0.001407 -0.100000
v 0.052250 -0.036094 -0.100000
v 0.023481 -0.073343 -0.100000
v -0.008898 -0.113522 -0.100000
v -0.045000 -0.157000 -0.100000
v 0.216000 -0.157000 -0.100000
v 0.216000 -0.250000 -0.100000
v -0.216000 -0.250000 -0.100000
v -0.216000 -0.250000 0.100000
v -0.216000 -0.243000 -0.100000
v -0.216000 -0.243000 0.100000
v -0.196689 -0.219596 -0.100000
v -0.196689 -0.219596 0.100000
v -0.176431 -0.195018 -0.100000
v -0.176431 -0.195019 0.100000
v -0.155484 -0.169469 -0.100000
v -0.155484 -0.169469 0.100000
v -0.134111 -0.143148 -0.100000
v -0.134111 -0.143148 0.100000
v -0.112571 -0.116258 -0.100000
v -0.112571 -0.116258 0.100000
v -0.091125 -0.089000 -0.100000
v -0.091125 -0.089000 0.100000
v -0.070033 -0.061575 -0.100000
v -0.070033 -0.061575 0.100000
v -0.049556 -0.034185 -0.100000
v -0.049556 -0.034185 0.100000
v -0.029953 -0.007031 -0.100000
v -0.029953 -0.007031 0.100000
v -0.011486 0.019685 -0.100000
v -0.011486 0.019685 0.100000
v 0.005585 0.045763 -0.100000
v 0.005585 0.045763 0.100000
v 0.021000 0.071000 -0.100000
v 0.021000 0.071000 0.100000
v 0.028667 0.084338 -0.100000
v 0.028667 0.084338 0.100000
v 0.035667 0.096954 -0.100000
v 0.035667 0.096954 0.100000
v 0.042000 0.109000 -0.100000
v 0.042000 0.109000 0.100000
v 0.047667 0.120630 -0.100000
v 0.047667 0.120630 0.100000
v 0.052667 0.131995 -0.100000
v 0.052667 0.131995 0.100000
v 0.057000 0.143250 -0.100000
v 0.057000 0.143250 0.100000
v 0.060667 0.154546 -0.100000
v 0.060667 0.154546 0.100000
v 0.063667 0.166037 -0.100000
v 0.063667 0.166037 0.100000
v 0.066000 0.177875 -0.100000
v 0.066000 0.177875 0.100000
v 0.067667 0.190213 -0.100000
v 0.067667 0.190213 0.100000
v 0.068667 0.203204 -0.100000
v 0.068667 0.203204 0.100000
v 0.069000 0.217000 -0.100000
v 0.069000 0.217000 0.100000
v 0.067977 0.235274 -0.100000
v 0.067977 0.235274 0.100000
v 0.064986 0.252523 -0.100000
v 0.064986 0.252523 0.100000
v 0.060141 0.268641 -0.100000
v 0.060141 0.268641 0.100000
v 0.053556 0.283519 -0.100000
v 0.053556 0.283518 0.100000
v 0.045345 0.297049 -0.100000
v 0.045345 0.297049 0.100000
v 0.035625 0.309125 -0.100000
v 0.035625 0.309125 0.100000
v 0.024509 0.319638 -0.100000
v 0.024509 0.319638 0.100000
v 0.012111 0.328481 -0.100000
v 0.012111 0.328481 0.100000
v -0.001453 0.335547 -0.100000
v -0.001453 0.335547 0.100000
v -0.016069 0.340727 -0.100000
v -0.016069 0.340727 0.100000
v -0.031623 0.343914 -0.100000
v -0.031623 0.343914 0.100000
v -0.048000 0.345000 -0.100000
v -0.048000 0.345000 0.100000
v -0.060273 0.344527 -0.100000
v -0.060273 0.344527 0.100000
v -0.072602 0.343046 -0.100000
v -0.072602 0.343046 0.100000
v -0.085000 0.340469 -0.100000
v -0.085000 0.340469 0.100000
v -0.097481 0.336704 -0.100000
v -0.097481 0.336704 0.100000
v -0.110060 0.331661 -0.100000
v -0.110060 0.331661 0.100000
v -0.122750 0.325250 -0.100000
v -0.122750 0.325250 0.100000
v -0.135565 0.317381 -0.100000
v -0.135565 0.317381 0.100000
v -0.148519 0.307963 -0.100000
v -0.148519 0.307963 0.100000
v -0.161625 0.296906 -0.100000
v -0.161625 0.296906 0.100000
v -0.174898 0.284120 -0.100000
v -0.174898 0.284120 0.100000
v -0.188352 0.269515 -0.100000
v -0.188352 0.269515 0.100000
v -0.202000 0.253000 -0.100000
v -0.202000 0.253000 0.100000
v -0.202000 0.376000 -0.100000
v -0.202000 0.376000 0.100000
v -0.188329 0.386522 -0.100000
v -0.188329 0.386522 0.100000
v -0.174796 0.396093 -0.100000
v -0.174796 0.396093 0.100000
v -0.161375 0.404719 -0.100000
v -0.161375 0.404719 0.100000
v -0.148037 0.412408 -0.100000
v -0.148037 0.412407 0.100000
v -0.134755 0.419166 -0.100000
v -0.134755 0.419165 0.100000
v -0.121500 0.425000 -0.100000
v -0.121500 0.425000 0.100000
v -0.108245 0.429918 -0.100000
v -0.108245 0.429918 0.100000
v -0.094963 0.433926 -0.100000
v -0.094963 0.433926 0.100000
v -0.081625 0.437031 -0.100000
v -0.081625 0.437031 0.100000
v -0.068204 0.439241 -0.100000
v -0.068204 0.439241 0.100000
v -0.054671 0.440561 -0.100000
v -0.054671 0.440561 0.100000
v -0.041000 0.441000 -0.100000
v -0.041000 0.441000 0.100000
v -0.011069 0.439215 -0.100000
v -0.011069 0.439215 0.100000
v 0.017116 0.433972 -0.100000
v 0.017116 0.433972 0.100000
v 0.043391 0.425438 -0.100000
v 0.043391 0.425438 0.100000
v 0.067593 0.413778 -0.100000
v 0.067593 0.413778 0.100000
v 0.089558 0.399160 -0.100000
v 0.089558 0.399160 0.100000
v 0.109125 0.381750 -0.100000
v 0.109125 0.381750 0.100000
v 0.126129 0.361715 -0.100000
v 0.126129 0.361715 0.100000
v 0.140407 0.339222 -0.100000
v 0.140407 0.339222 0.100000
v 0.151797 0.314438 -0.100000
v 0.151797 0.314437 0.100000
v 0.160134 0.287528 -0.100000
v 0.160134 0.287528 0.100000
v 0.165256 0.258660 -0.100000
v 0.165256 0.258660 0.100000
v 0.167000 0.228000 -0.100000
v 0.167000 0.228000 0.100000
v 0.165732 0.200564 -0.100000
v 0.165732 0.200564 0.100000
v 0.161852 0.173509 -0.100000
v 0.161852 0.173509 0.100000
v 0.155250 0.146469 -0.100000
v 0.155250 0.146469 0.100000
v 0.145815 0.119074 -0.100000
v 0.145815 0.119074 0.100000
v 0.133435 0.090957 -0.100000
v 0.133435 0.090957 0.100000
v 0.118000 0.061750 -0.100000
v 0.118000 0.061750 0.100000
v 0.099398 0.031085 -0.100000
v 0.099398 0.031084 0.100000
v 0.077519 -0.001407 -0.100000
v 0.077519 -0.001407 0.100000
v 0.052250 -0.036094 -0.100000
v 0.052250 -0.036094 0.100000
v 0.023481 -0.073343 -0.100000
v 0.023481 -0.073343 0.100000
v -0.008898 -0.113522 -0.100000
v -0.008898 -0.113522 0.100000
v -0.045000 -0.157000 -0.100000
v -0.045000 -0.157000 0.100000
v 0.216000 -0.157000 -0.100000
v 0.216000 -0.157000 0.100000
v 0.216000 -0.250000 -0.100000
v 0.216000 -0.250000 0.100000
vn 0.000000 0.000000 1.000000
vn 0.000000 -0.000001 1.000000
vn -0.000000 -0.000002 1.000000
vn 0.000000 -0.000000 -1.000000
vn -0.000000 0.000001 -1.000000
vn 0.000000 0.000002 -1.000000
vn -0.707083 -0.707083 0.000000
vn -0.941069 0.338115 0.000000
vn -0.771477 0.636219 0.000000
vn -0.772485 0.634999 0.000000
vn -0.774804 0.632160 0.000000
vn -0.778375 0.627766 0.000000
vn -0.783197 0.621754 0.000000
vn -0.789300 0.613971 0.000000
vn -0.796808 0.604205 0.000000
vn -0.805872 0.592059 0.000000
vn -0.816736 0.576983 0.000000
vn -0.829676 0.558184 0.000000
vn -0.845119 0.534532 0.000000
vn -0.860256 0.509842 0.000000
vn -0.870693 0.491745 0.000000
vn -0.879818 0.475295 0.000000
vn -0.892148 0.451735 0.000000
vn -0.907315 0.420423 0.000000
vn -0.924528 0.381085 0.000000
vn -0.942503 0.334117 0.000000
vn -0.959746 0.280770 0.000000
vn -0.974792 0.223090 0.000000
vn -0.986480 0.163701 0.000000
vn -0.994415 0.105350 0.000000
vn -0.998718 0.050447 0.000000
vn -0.999847 -0.015870 0.000000
vn -0.993530 -0.113559 0.000000
vn -0.973235 -0.229774 0.000000
vn -0.937864 -0.346965 0.000000
vn -0.886502 -0.462691 0.000000
vn -0.818720 -0.574145 0.000000
vn -0.734733 -0.678335 0.000000
vn -0.635426 -0.772149 0.000000
vn -0.522599 -0.852565 0.000000
vn -0.398968 -0.916959 0.000000
vn -0.268014 -0.963408 0.000000
vn -0.133763 -0.990997 0.000000
vn -0.013825 -0.999878 0.000000
vn 0.078921 -0.996857 0.000000
vn 0.161504 -0.986847 0.000000
vn 0.246406 -0.969146 0.000000
vn 0.330760 -0.943693 0.000000
vn 0.411878 -0.911222 0.000000
vn 0.487503 -0.873104 0.000000
vn 0.556078 -0.831111 0.000000
vn 0.616810 -0.787072 0.000000
vn 0.669637 -0.742668 0.000000
vn 0.714927 -0.699149 0.000000
vn 0.753441 -0.657491 0.000000
vn -0.338481 -0.940947 0.000000
vn -0.897183 0.441633 0.000000
vn -0.593768 0.804621 0.000000
vn -0.559160 0.829035 0.000000
vn -0.520188 0.854030 0.000000
vn -0.476608 0.879086 0.000000
vn -0.428327 0.903592 0.000000
vn -0.375530 0.926786 0.000000
vn -0.318522 0.947905 0.000000
vn -0.257942 0.966155 0.000000
vn -0.194678 0.980834 0.000000
vn -0.129826 0.991516 0.000000
vn -0.064608 0.997894 0.000000
vn 0.013733 0.999878 0.000000
vn 0.121433 0.992584 0.000000
vn 0.246406 0.969146 0.000000
vn 0.372326 0.928098 0.000000
vn 0.495193 0.868770 0.000000
vn 0.610859 0.791711 0.000000
vn 0.715323 0.698782 0.000000
vn 0.805231 0.592914 0.000000
vn 0.878445 0.477828 0.000000
vn 0.933897 0.357494 0.000000
vn 0.971801 0.235755 0.000000
vn 0.993255 0.115940 0.000000
vn 0.999969 0.005280 0.000000
vn 0.995544 -0.094150 0.000000
vn 0.981811 -0.189764 0.000000
vn 0.959471 -0.281686 0.000000
vn 0.931150 -0.364605 0.000000
vn 0.900235 -0.435377 0.000000
vn 0.869930 -0.493149 0.000000
vn 0.842463 -0.538743 0.000000
vn 0.818995 -0.573779 0.000000
vn 0.799921 -0.600085 0.000000
vn 0.785058 -0.619373 0.000000
vn 0.774010 -0.633168 0.000000
vn 0.905209 0.424940 0.000000
vn 0.707083 0.707083 0.000000
vn 0.707083 -0.707083 0.000000
usemtl 
s off
f 62//1 64//1 63//1
f 61//1 64//1 62//1
f 60//1 64//1 61//1
f 60//1 65//1 64//1
f 59//1 65//1 60//1
f 59//2 66//2 65//2
f 58//3 66//3 59//3
f 57//1 66//1 58//1
f 57//2 67//2 66//2
f 56//2 67//2 57//2
f 55//1 67//1 56//1
f 55//2 68//2 67//2
f 54//2 68//2 55//2
f 53//2 68//2 54//2
f 53//2 69//2 68//2
f 52//1 69//1 53//1
f 51//2 69//2 52//2
f 51//1 70//1 69//1
f 50//2 49//2 51//2
f 49//2 48//2 51//2
f 48//2 47//2 51//2
f 47//2 46//2 51//2
f 46//2 45//2 51//2
f 45//1 44//1 51//1
f 44//2 43//2 51//2
f 43//1 42//1 51//1
f 42//2 41//2 51//2
f 41//1 40//1 51//1
f 40//1 39//1 51//1
f 39//2 38//2 51//2
f 38//2 70//2 51//2
f 38//2 71//2 70//2
f 37//1 71//1 38//1
f 36//1 71//1 37//1
f 35//2 71//2 36//2
f 35//2 72//2 71//2
f 34//1 72//1 35//1
f 33//2 72//2 34//2
f 32//2 72//2 33//2
f 32//2 73//2 72//2
f 31//2 73//2 32//2
f 30//2 73//2 31//2
f 30//2 74//2 73//2
f 29//1 74//1 30//1
f 28//2 74//2 29//2
f 28//2 75//2 74//2
f 27//1 75//1 28//1
f 26//2 75//2 27//2
f 26//2 76//2 75//2
f 25//2 76//2 26//2
f 24//2 76//2 25//2
f 24//2 77//2 76//2
f 23//2 77//2 24//2
f 22//2 77//2 23//2
f 22//2 78//2 77//2
f 21//2 78//2 22//2
f 20//2 78//2 21//2
f 20//2 79//2 78//2
f 19//2 79//2 20//2
f 18//2 79//2 19//2
f 17//2 79//2 18//2
f 17//2 80//2 79//2
f 16//2 80//2 17//2
f 15//2 80//2 16//2
f 15//2 81//2 80//2
f 14//2 81//2 15//2
f 13//2 81//2 14//2
f 13//2 82//2 81//2
f 12//2 82//2 13//2
f 12//2 83//2 82//2
f 11//2 83//2 12//2
f 11//2 84//2 83//2
f 10//2 84//2 11//2
f 9//2 84//2 10//2
f 9//2 85//2 84//2
f 8//2 85//2 9//2
f 8//2 86//2 85//2
f 7//2 86//2 8//2
f 7//2 87//2 86//2
f 6//2 87//2 7//2
f 5//2 87//2 6//2
f 5//2 88//2 87//2
f 5//2 89//2 88//2
f 4//2 89//2 5//2
f 3//2 89//2 4//2
f 2//2 89//2 3//2
f 1//2 89//2 2//2
f 153//4 151//4 152//4
f 153//4 150//4 151//4
f 153//4 149//4 150//4
f 154//4 149//4 153//4
f 154//4 148//4 149//4
f 155//5 148//5 154//5
f 155//6 147//6 148//6
f 155//4 146//4 147//4
f 156//5 146//5 155//5
f 156//5 145//5 146//5
f 156//4 144//4 145//4
f 157//5 144//5 156//5
f 157//5 143//5 144//5
f 157//5 142//5 143//5
f 158//5 142//5 157//5
f 158//4 141//4 142//4
f 158//5 140//5 141//5
f 159//4 140//4 158//4
f 138//5 139//5 140//5
f 137//5 138//5 140//5
f 136//5 137//5 140//5
f 135//5 136//5 140//5
f 134//5 135//5 140//5
f 133//4 134//4 140//4
f 132//5 133//5 140//5
f 131//4 132//4 140//4
f 130//5 131//5 140//5
f 129//4 130//4 140//4
f 128//4 129//4 140//4
f 127//5 128//5 140//5
f 159//5 127//5 140//5
f 160//5 127//5 159//5
f 160//4 126//4 127//4
f 160//4 125//4 126//4
f 160//5 124//5 125//5
f 161//5 124//5 160//5
f 161//4 123//4 124//4
f 161//5 122//5 123//5
f 161//5 121//5 122//5
f 162//5 121//5 161//5
f 162//5 120//5 121//5
f 162//5 119//5 120//5
f 163//5 119//5 162//5
f 163//4 118//4 119//4
f 163//5 117//5 118//5
f 164//5 117//5 163//5
f 164//4 116//4 117//4
f 164//5 115//5 116//5
f 165//5 115//5 164//5
f 165//5 114//5 115//5
f 165//5 113//5 114//5
f 166//5 113//5 165//5
f 166//5 112//5 113//5
f 166//5 111//5 112//5
f 167//5 111//5 166//5
f 167//5 110//5 111//5
f 167//5 109//5 110//5
f 168//5 109//5 167//5
f 168//5 108//5 109//5
f 168//5 107//5 108//5
f 168//5 106//5 107//5
f 169//5 106//5 168//5
f 169//5 105//5 106//5
f 169//5 104//5 105//5
f 170//5 104//5 169//5
f 170//5 103//5 104//5
f 170//5 102//5 103//5
f 171//5 102//5 170//5
f 171//5 101//5 102//5
f 172//5 101//5 171//5
f 172//5 100//5 101//5
f 173//5 100//5 172//5
f 173//5 99//5 100//5
f 173//5 98//5 99//5
f 174//5 98//5 173//5
f 174//5 97//5 98//5
f 175//5 97//5 174//5
f 175//5 96//5 97//5
f 176//5 96//5 175//5
f 176//5 95//5 96//5
f 176//5 94//5 95//5
f 177//5 94//5 176//5
f 178//5 94//5 177//5
f 178//5 93//5 94//5
f 178//5 92//5 93//5
f 178//5 91//5 92//5
f 178//5 90//5 91//5
s 1
f 180//7 182//8 181//8
f 180//7 181//8 179//7
f 182//8 184//9 183//9
f 182//8 183//9 181//8
f 184//9 186//10 185//10
f 184//9 185//10 183//9
f 186//10 188//11 187//11
f 186//10 187//11 185//10
f 188//11 190//12 189//12
f 188//11 189//12 187//11
f 190//12 192//13 191//13
f 190//12 191//13 189//12
f 192//13 194//14 193//14
f 192//13 193//14 191//13
f 194//14 196//15 195//15
f 194//14 195//15 193//14
f 196//15 198//16 197//16
f 196//15 197//16 195//15
f 198//16 200//17 199//17
f 198//16 199//17 197//16
f 200//17 202//18 201//18
f 200//17 201//18 199//17
f 202//18 204//19 203//19
f 202//18 203//19 201//18
f 204//19 206//20 205//20
f 204//19 205//20 203//19
f 206//20 208//21 207//21
f 206//20 207//21 205//20
f 208//21 210//22 209//22
f 208//21 209//22 207//21
f 210//22 212//23 211//23
f 210//22 211//23 209//22
f 212//23 214//24 213//24
f 212//23 213//24 211//23
f 214//24 216//25 215//25
f 214//24 215//25 213//24
f 216//25 218//26 217//26
f 216//25 217//26 215//25
f 218//26 220//27 219//27
f 218//26 219//27 217//26
f 220//27 222//28 221//28
f 220//27 221//28 219//27
f 222//28 224//29 223//29
f 222//28 223//29 221//28
f 224//29 226//30 225//30
f 224//29 225//30 223//29
f 226//30 228//31 227//31
f 226//30 227//31 225//30
f 228//31 230//32 229//32
f 228//31 229//32 227//31
f 230//32 232//33 231//33
f 230//32 231//33 229//32
f 232//33 234//34 233//34
f 232//33 233//34 231//33
f 234//34 236//35 235//35
f 234//34 235//35 233//34
f 236//35 238//36 237//36
f 236//35 237//36 235//35
f 238//36 240//37 239//37
f 238//36 239//37 237//36
f 240//37 242//38 241//38
f 240//37 241//38 239//37
f 242//38 244//39 243//39
f 242//38 243//39 241//38
f 244//39 246//40 245//40
f 244//39 245//40 243//39
f 246//40 248//41 247//41
f 246//40 247//41 245//40
f 248//41 250//42 249//42
f 248//41 249//42 247//41
f 250//42 252//43 251//43
f 250//42 251//43 249//42
f 252//43 254//44 253//44
f 252//43 253//44 251//43
f 254//44 256//45 255//45
f 254//44 255//45 253//44
f 256//45 258//46 257//46
f 256//45 257//46 255//45
f 258//46 260//47 259//47
f 258//46 259//47 257//46
f 260//47 262//48 261//48
f 260//47 261//48 259//47
f 262//48 264//49 263//49
f 262//48 263//49 261//48
f 264//49 266//50 265//50
f 264//49 265//50 263//49
f 266//50 268//51 267//51
f 266//50 267//51 265//50
f 268//51 270//52 269//52
f 268//51 269//52 267//51
f 270//52 272//53 271//53
f 270//52 271//53 269//52
f 272//53 274//54 273//54
f 272//53 273//54 271//53
f 274//54 276//55 275//55
f 274//54 275//55 273//54
f 276//55 278//56 277//56
f 276//55 277//56 275//55
f 278//56 280//57 279//57
f 278//56 279//57 277//56
f 280//57 282//58 281//58
f 280//57 281//58 279//57
f 282//58 284//59 283//59
f 282//58 283//59 281//58
f 284//59 286//60 285//60
f 284//59 285//60 283//59
f 286//60 288//61 287//61
f 286//60 287//61 285//60
f 288//61 290//62 289//62
f 288//61 289//62 287//61
f 290//62 292//63 291//63
f 290//62 291//63 289//62
f 292//63 294//64 293//64
f 292//63 293//64 291//63
f 294//64 296//65 295//65
f 294//64 295//65 293//64
f 296//65 298//66 297//66
f 296//65 297//66 295//65
f 298//66 300//67 299//67
f 298//66 299//67 297//66
f 300//67 302//68 301//68
f 300//67 301//68 299//67
f 302//68 304//69 303//69
f 302//68 303//69 301//68
f 304//69 306//70 305//70
f 304//69 305//70 303//69
f 306//70 308//71 307//71
f 306//70 307//71 305//70
f 308//71 310//72 309//72
f 308//71 309//72 307//71
f 310//72 312//73 311//73
f 310//72 311//73 309//72
f 312//73 314//74 313//74
f 312//73 313//74 311//73
f 314//74 316//75 315//75
f 314//74 315//75 313//74
f 316//75 318//76 317//76
f 316//75 317//76 315//75
f 318//76 320//77 319//77
f 318//76 319//77 317//76
f 320//77 322//78 321//78
f 320//77 321//78 319//77
f 322//78 324//79 323//79
f 322//78 323//79 321//78
f 324//79 326//80 325//80
f 324//79 325//80 323//79
f 326//80 328//81 327//81
f 326//80 327//81 325//80
f 328//81 330//82 329//82
f 328//81 329//82 327//81
f 330//82 332//83 331//83
f 330//82 331//83 329//82
f 332//83 334//84 333//84
f 332//83 333//84 331//83
f 334//84 336//85 335//85
f 334//84 335//85 333//84
f 336//85 338//86 337//86
f 336//85 337//86 335//85
f 338//86 340//87 339//87
f 338//86 339//87 337//86
f 340//87 342//88 341//88
f 340//87 341//88 339//87
f 342//88 344//89 343//89
f 342//88 343//89 341//88
f 344//89 346//90 345//90
f 344//89 345//90 343//89
f 346//90 348//91 347//91
f 346//90 347//91 345//90
f 348//91 350//92 349//92
f 348//91 349//92 347//91
f 350//92 352//93 351//93
f 350//92 351//93 349//92
f 352//93 354//94 353//94
f 352//93 353//94 351//93
f 354//94 356//95 355//95
f 354//94 355//95 353//94
f 356//95 180//7 179//7
f 356//95 179//7 355//95
