# Blender v2.63 (sub 0) OBJ File: 'number.blend'
# www.blender.org
mtllib 7.mtl
o Text
v -0.156000 -0.221000 0.100000
v 0.094000 0.339000 0.100000
v -0.201000 0.339000 0.100000
v -0.201000 0.432000 0.100000
v 0.240000 0.432000 0.100000
v -0.069000 -0.259000 0.100000
v -0.156000 -0.221000 -0.100000
v 0.094000 0.339000 -0.100000
v -0.201000 0.339000 -0.100000
v -0.201000 0.432000 -0.100000
v 0.240000 0.432000 -0.100000
v -0.069000 -0.259000 -0.100000
v -0.156000 -0.221000 -0.100000
v -0.156000 -0.221000 0.100000
v 0.094000 0.339000 -0.100000
v 0.094000 0.339000 0.100000
v -0.201000 0.339000 -0.100000
v -0.201000 0.339000 0.100000
v -0.201000 0.432000 -0.100000
v -0.201000 0.432000 0.100000
v 0.240000 0.432000 -0.100000
v 0.240000 0.432000 0.100000
v -0.069000 -0.259000 -0.100000
v -0.069000 -0.259000 0.100000
vn 0.000000 -0.000001 1.000000
vn 0.000000 0.000001 -1.000000
vn -0.932463 -0.361187 0.000000
vn -0.838923 -0.544206 0.000000
vn -0.707083 -0.707083 0.000000
vn -0.707083 0.707083 0.000000
vn 0.839106 0.543931 0.000000
vn 0.360881 -0.932585 0.000000
usemtl 
s off
f 3//1 5//1 4//1
f 3//1 2//1 5//1
f 2//1 6//1 5//1
f 1//1 6//1 2//1
f 11//2 9//2 10//2
f 8//2 9//2 11//2
f 12//2 8//2 11//2
f 12//2 7//2 8//2
s 1
f 14//3 16//4 15//4
f 14//3 15//4 13//3
f 16//4 18//5 17//5
f 16//4 17//5 15//4
f 18//5 20//6 19//6
f 18//5 19//6 17//5
f 20//6 22//7 21//7
f 20//6 21//7 19//6
f 22//7 24//8 23//8
f 22//7 23//8 21//7
f 24//8 14//3 13//3
f 24//8 13//3 23//8
