# Blender v2.66 (sub 1) OBJ File: 'ball.blend'
# www.blender.org
o Sphere
v -1.476944 1.450151 0.097730
v -1.910489 0.801304 0.097730
v -2.062730 0.035937 0.097730
v -1.910489 -0.729430 0.097730
v -1.476944 -1.378276 0.097730
v -0.828097 -1.811822 0.097730
v -0.603926 1.883696 -0.443466
v -1.062730 1.450151 -0.902270
v -1.369293 0.801304 -1.208833
v -1.476944 0.035937 -1.316483
v -1.369293 -0.729430 -1.208833
v -1.062730 -1.378276 -0.902270
v -0.603926 -1.811822 -0.443466
v -0.062731 1.883696 -0.667637
v -0.062730 1.450151 -1.316483
v -0.062730 0.801304 -1.750029
v -0.062730 0.035937 -1.902270
v -0.062730 -0.729430 -1.750029
v -0.062730 -1.378276 -1.316483
v -0.062731 -1.811822 -0.667637
v -0.062731 2.035937 0.097730
v 0.478465 1.883696 -0.443466
v 0.937269 1.450151 -0.902270
v 1.243832 0.801304 -1.208833
v 1.351483 0.035937 -1.316483
v 1.243832 -0.729430 -1.208833
v 0.937269 -1.378276 -0.902270
v 0.478465 -1.811822 -0.443466
v 0.702636 1.883696 0.097730
v 1.351483 1.450151 0.097730
v 1.785028 0.801304 0.097730
v 1.937269 0.035937 0.097730
v 1.785028 -0.729430 0.097730
v 1.351483 -1.378276 0.097730
v 0.702636 -1.811822 0.097730
v -0.062731 -1.964063 0.097730
v 0.478465 1.883696 0.638926
v 0.937269 1.450151 1.097730
v 1.243832 0.801304 1.404293
v 1.351483 0.035937 1.511944
v 1.243832 -0.729430 1.404293
v 0.937269 -1.378276 1.097730
v 0.478465 -1.811822 0.638926
v -0.062731 1.883696 0.863097
v -0.062731 1.450151 1.511943
v -0.062731 0.801304 1.945489
v -0.062731 0.035937 2.097730
v -0.062731 -0.729430 1.945489
v -0.062731 -1.378276 1.511943
v -0.062731 -1.811822 0.863097
v -0.603927 1.883696 0.638926
v -1.062731 1.450151 1.097730
v -1.369294 0.801304 1.404293
v -1.476945 0.035937 1.511943
v -1.369294 -0.729430 1.404293
v -1.062731 -1.378276 1.097730
v -0.603927 -1.811822 0.638926
v -0.828097 1.883696 0.097730
vn -0.908663 0.180744 -0.376381
vn -0.786151 -0.525289 -0.325634
vn -0.786151 0.525289 -0.325634
vn -0.908663 -0.180744 -0.376381
vn -0.541419 -0.810291 -0.224263
vn -0.325634 -0.525289 -0.786151
vn -0.325634 0.525289 -0.786151
vn -0.376381 -0.180744 -0.908663
vn -0.224263 -0.810291 -0.541419
vn -0.224263 0.810291 -0.541419
vn -0.376381 0.180744 -0.908663
vn 0.325634 -0.525289 -0.786151
vn 0.325634 0.525289 -0.786151
vn 0.376381 -0.180744 -0.908663
vn 0.224263 -0.810291 -0.541419
vn 0.224263 0.810291 -0.541419
vn 0.376381 0.180744 -0.908663
vn 0.786151 -0.525289 -0.325634
vn 0.786151 0.525289 -0.325634
vn 0.908663 -0.180745 -0.376381
vn 0.541419 -0.810291 -0.224263
vn 0.541419 0.810291 -0.224263
vn 0.908663 0.180745 -0.376381
vn 0.786151 -0.525289 0.325634
vn 0.786151 0.525289 0.325635
vn 0.908663 -0.180744 0.376381
vn 0.541419 -0.810291 0.224263
vn 0.541419 0.810291 0.224263
vn 0.908663 0.180744 0.376381
vn 0.325634 -0.525289 0.786151
vn 0.325634 0.525289 0.786151
vn 0.376381 -0.180744 0.908663
vn 0.224263 -0.810291 0.541419
vn 0.224263 0.810291 0.541419
vn 0.376381 0.180744 0.908663
vn -0.325635 -0.525289 0.786151
vn -0.325635 0.525289 0.786151
vn -0.376381 -0.180744 0.908663
vn -0.224263 -0.810291 0.541419
vn -0.224263 0.810291 0.541419
vn -0.376381 0.180744 0.908663
vn -0.541419 0.810291 -0.224263
vn -0.194457 0.977598 -0.080547
vn -0.194457 -0.977599 -0.080547
vn -0.080547 0.977599 -0.194457
vn -0.080547 -0.977599 -0.194457
vn 0.080547 0.977599 -0.194457
vn 0.080547 -0.977598 -0.194457
vn 0.194457 0.977599 -0.080547
vn 0.194457 -0.977599 -0.080547
vn 0.194457 0.977599 0.080547
vn 0.194457 -0.977598 0.080547
vn 0.080547 0.977598 0.194457
vn 0.080547 -0.977598 0.194457
vn -0.080547 0.977599 0.194457
vn -0.080547 -0.977599 0.194457
vn -0.786151 -0.525289 0.325634
vn -0.194457 0.977598 0.080547
vn -0.194457 -0.977599 0.080546
vn -0.786151 0.525289 0.325634
vn -0.908664 -0.180744 0.376380
vn -0.541419 -0.810291 0.224263
vn -0.541419 0.810291 0.224263
vn -0.908663 0.180744 0.376380
vn 0.325635 0.525289 -0.786151
vn 0.908663 -0.180744 -0.376381
vn 0.908663 0.180744 -0.376381
vn 0.325634 -0.525290 0.786151
vn -0.325635 -0.525290 0.786151
vn -0.908663 -0.180744 0.376380
s off
f 3//1 2//1 10//1
f 5//2 4//2 12//2
f 2//3 1//3 9//3
f 4//4 3//4 11//4
f 6//5 5//5 13//5
f 12//6 11//6 19//6
f 9//7 8//7 16//7
f 11//8 10//8 18//8
f 13//9 12//9 20//9
f 8//10 7//10 15//10
f 10//11 9//11 17//11
f 19//12 18//12 26//12
f 16//13 15//13 23//13
f 18//14 17//14 25//14
f 20//15 19//15 27//15
f 15//16 14//16 22//16
f 17//17 16//17 24//17
f 27//18 26//18 33//18
f 24//19 23//19 30//19
f 26//20 25//20 32//20
f 28//21 27//21 34//21
f 23//22 22//22 29//22
f 25//23 24//23 31//23
f 34//24 33//24 41//24
f 31//25 30//25 38//25
f 33//26 32//26 40//26
f 35//27 34//27 42//27
f 30//28 29//28 37//28
f 32//29 31//29 39//29
f 42//30 41//30 48//30
f 39//31 38//31 45//31
f 41//32 40//32 47//32
f 43//33 42//33 49//33
f 38//34 37//34 44//34
f 40//35 39//35 46//35
f 49//36 48//36 56//36
f 46//37 45//37 53//37
f 48//38 47//38 55//38
f 50//39 49//39 57//39
f 45//40 44//40 52//40
f 47//41 46//41 54//41
f 1//42 58//42 8//42
f 58//43 21//43 7//43
f 36//44 6//44 13//44
f 7//45 21//45 14//45
f 36//46 13//46 20//46
f 14//47 21//47 22//47
f 36//48 20//48 28//48
f 22//49 21//49 29//49
f 36//50 28//50 35//50
f 29//51 21//51 37//51
f 36//52 35//52 43//52
f 37//53 21//53 44//53
f 36//54 43//54 50//54
f 44//55 21//55 51//55
f 36//56 50//56 57//56
f 56//57 55//57 5//57
f 51//58 21//58 58//58
f 36//59 57//59 6//59
f 53//60 52//60 2//60
f 55//61 54//61 4//61
f 57//62 56//62 6//62
f 52//63 51//63 1//63
f 54//64 53//64 3//64
f 2//1 9//1 10//1
f 4//2 11//2 12//2
f 1//3 8//3 9//3
f 3//4 10//4 11//4
f 5//5 12//5 13//5
f 11//6 18//6 19//6
f 8//7 15//7 16//7
f 10//8 17//8 18//8
f 12//9 19//9 20//9
f 7//10 14//10 15//10
f 9//11 16//11 17//11
f 27//12 19//12 26//12
f 24//65 16//65 23//65
f 26//14 18//14 25//14
f 28//15 20//15 27//15
f 23//16 15//16 22//16
f 25//17 17//17 24//17
f 34//18 27//18 33//18
f 31//19 24//19 30//19
f 33//66 26//66 32//66
f 35//21 28//21 34//21
f 30//22 23//22 29//22
f 32//67 25//67 31//67
f 42//24 34//24 41//24
f 39//25 31//25 38//25
f 41//26 33//26 40//26
f 43//27 35//27 42//27
f 38//28 30//28 37//28
f 40//29 32//29 39//29
f 49//68 42//68 48//68
f 46//31 39//31 45//31
f 48//32 41//32 47//32
f 50//33 43//33 49//33
f 45//34 38//34 44//34
f 47//35 40//35 46//35
f 48//69 55//69 56//69
f 45//37 52//37 53//37
f 47//38 54//38 55//38
f 49//39 56//39 57//39
f 44//40 51//40 52//40
f 46//41 53//41 54//41
f 58//42 7//42 8//42
f 55//57 4//57 5//57
f 52//60 1//60 2//60
f 54//70 3//70 4//70
f 56//62 5//62 6//62
f 51//63 58//63 1//63
f 53//64 2//64 3//64
