# Blender v2.66 (sub 1) OBJ File: 'cube.blend'
# www.blender.org
mtllib cube.mtl
o Cube
v -0.809018 -0.587784 -1.414214
v 0.022236 -1.731908 -0.000001
v -0.809017 -0.587785 1.414214
v -1.640271 0.556338 0.000000
v 0.809017 0.587785 -1.414214
v 1.640271 -0.556338 0.000000
v 0.809017 0.587785 1.414214
v -0.022236 1.731908 0.000000
vn -0.809017 -0.587785 0.000000
vn 0.809017 0.587785 0.000000
vn 0.415627 -0.572062 -0.707107
vn 0.415626 -0.572062 0.707107
vn -0.415627 0.572061 0.707107
vn -0.415626 0.572062 -0.707107
vn 0.415627 -0.572061 -0.707107
vn 0.415627 -0.572062 0.707107
vn -0.415627 0.572062 -0.707107
usemtl Material
s off
f 1//1 2//1 4//1
f 5//2 8//2 7//2
f 1//3 5//3 6//3
f 2//4 6//4 7//4
f 3//5 7//5 4//5
f 5//6 1//6 8//6
f 2//1 3//1 4//1
f 6//2 5//2 7//2
f 2//7 1//7 6//7
f 3//8 2//8 7//8
f 7//5 8//5 4//5
f 1//9 4//9 8//9
